<svg xmlns="http://www.w3.org/2000/svg" xmlns:xlink="http://www.w3.org/1999/xlink" width="100%" height="100%" version="1.1" viewBox="0 0 3840 2160" xml:space="preserve" style="fill-rule:evenodd;clip-rule:evenodd;stroke-linejoin:round;stroke-miterlimit:2"><rect width="4052.18" height="2564.75" x="-29.596" y="-83.906" style="fill:url(#_Linear1)"/><g transform="matrix(1.20155,0,0,1.1938,-286.409,-473.123)"><circle cx="3195.91" cy="1316.48" r="901.31" style="fill:url(#_Linear2)"/></g><g transform="matrix(1,0,0,1,-50.3057,-167.686)"><circle cx="534.779" cy="654.47" r="772.751" style="fill:url(#_Linear3)"/></g><g transform="matrix(1,0,0,1,0,-122.969)"><circle cx="1280.19" cy="1987.66" r="510.044" style="fill:url(#_Linear4)"/></g><g id="brightness_5-24px"><g transform="matrix(30.869,0,0,30.869,1920,1080) matrix(1,0,0,1,-12,-12)"><clipPath id="_clip5"><rect width="24" height="24" x="0" y="0"/></clipPath><g clip-path="url(#_clip5)"><rect width="24" height="24" x="0" y="0" style="fill:none;fill-rule:nonzero"/><path d="M20,15.31L23.31,12L20,8.69L20,4L15.31,4L12,0.69L8.69,4L4,4L4,8.69L0.69,12L4,15.31L4,20L8.69,20L12,23.31L15.31,20L20,20L20,15.31ZM12,18C8.69,18 6,15.31 6,12C6,8.69 8.69,6 12,6C15.31,6 18,8.69 18,12C18,15.31 15.31,18 12,18Z" style="fill:#fff;fill-rule:nonzero"/></g></g></g><defs><linearGradient id="_Linear1" x1="0" x2="1" y1="0" y2="0" gradientTransform="matrix(4052.18,0,0,2564.75,-29.5964,1198.47)" gradientUnits="userSpaceOnUse"><stop offset="0" style="stop-color:#d11200;stop-opacity:1"/><stop offset="1" style="stop-color:#f43700;stop-opacity:1"/></linearGradient><linearGradient id="_Linear2" x1="0" x2="1" y1="0" y2="0" gradientTransform="matrix(1802.62,0,0,1802.62,2294.6,1316.48)" gradientUnits="userSpaceOnUse"><stop offset="0" style="stop-color:#d11200;stop-opacity:1"/><stop offset="1" style="stop-color:#f43700;stop-opacity:1"/></linearGradient><linearGradient id="_Linear3" x1="0" x2="1" y1="0" y2="0" gradientTransform="matrix(1545.5,0,0,1545.5,-237.972,654.47)" gradientUnits="userSpaceOnUse"><stop offset="0" style="stop-color:#d11200;stop-opacity:1"/><stop offset="1" style="stop-color:#f43700;stop-opacity:1"/></linearGradient><linearGradient id="_Linear4" x1="0" x2="1" y1="0" y2="0" gradientTransform="matrix(1020.09,0,0,1020.09,770.151,1987.66)" gradientUnits="userSpaceOnUse"><stop offset="0" style="stop-color:#d11200;stop-opacity:1"/><stop offset="1" style="stop-color:#f43700;stop-opacity:1"/></linearGradient></defs></svg>